<?xml version="1.0" encoding="UTF-8" standalone="no"?>
<!DOCTYPE svg PUBLIC "-//W3C//DTD SVG 1.1//EN"
 "http://www.w3.org/Graphics/SVG/1.1/DTD/svg11.dtd">
<!-- Generated by graphviz version 13.1.2 (20250808.2320)
 -->
<!-- Title: multi_format_parallel_chains Pages: 1 -->
<svg width="1488pt" height="221pt"
 viewBox="0.00 0.00 1488.00 221.00" xmlns="http://www.w3.org/2000/svg" xmlns:xlink="http://www.w3.org/1999/xlink">
<g id="graph0" class="graph" transform="scale(1 1) rotate(0) translate(4 217)">
<title>multi_format_parallel_chains</title>
<polygon fill="white" stroke="none" points="-4,4 -4,-217 1483.59,-217 1483.59,4 -4,4"/>
<!-- pdf_input -->
<g id="node1" class="node">
<title>pdf_input</title>
<ellipse fill="none" stroke="black" cx="72.34" cy="-195" rx="46.75" ry="18"/>
<text xml:space="preserve" text-anchor="middle" x="72.34" y="-189.95" font-family="Times,serif" font-size="14.00">pdf_input</text>
</g>
<!-- pdf_thumbnail -->
<g id="node2" class="node">
<title>pdf_thumbnail</title>
<ellipse fill="none" stroke="black" cx="72.34" cy="-106.5" rx="65.68" ry="18"/>
<text xml:space="preserve" text-anchor="middle" x="72.34" y="-101.45" font-family="Times,serif" font-size="14.00">pdf_thumbnail</text>
</g>
<!-- pdf_input&#45;&gt;pdf_thumbnail -->
<g id="edge1" class="edge">
<title>pdf_input&#45;&gt;pdf_thumbnail</title>
<path fill="none" stroke="black" d="M72.34,-176.91C72.34,-165.26 72.34,-149.55 72.34,-136.02"/>
<polygon fill="black" stroke="black" points="75.84,-136.36 72.34,-126.36 68.84,-136.36 75.84,-136.36"/>
<text xml:space="preserve" text-anchor="middle" x="285.34" y="-145.7" font-family="Times,serif" font-size="14.00">cap:in=media:pdf;op=generate_thumbnail;out=&quot;media:image;png;thumbnail&quot;</text>
</g>
<!-- pdf_img_embed -->
<g id="node3" class="node">
<title>pdf_img_embed</title>
<ellipse fill="none" stroke="black" cx="72.34" cy="-18" rx="72.34" ry="18"/>
<text xml:space="preserve" text-anchor="middle" x="72.34" y="-12.95" font-family="Times,serif" font-size="14.00">pdf_img_embed</text>
</g>
<!-- pdf_thumbnail&#45;&gt;pdf_img_embed -->
<g id="edge2" class="edge">
<title>pdf_thumbnail&#45;&gt;pdf_img_embed</title>
<path fill="none" stroke="black" d="M72.34,-88.41C72.34,-76.76 72.34,-61.05 72.34,-47.52"/>
<polygon fill="black" stroke="black" points="75.84,-47.86 72.34,-37.86 68.84,-47.86 75.84,-47.86"/>
<text xml:space="preserve" text-anchor="middle" x="418.46" y="-57.2" font-family="Times,serif" font-size="14.00">cap:candle;in=&quot;media:image;png&quot;;ml&#45;model;op=generate_image_embeddings;out=&quot;media:embedding&#45;vector;textable;record&quot;</text>
</g>
<!-- md_input -->
<g id="node4" class="node">
<title>md_input</title>
<ellipse fill="none" stroke="black" cx="787.34" cy="-195" rx="46.75" ry="18"/>
<text xml:space="preserve" text-anchor="middle" x="787.34" y="-189.95" font-family="Times,serif" font-size="14.00">md_input</text>
</g>
<!-- md_thumbnail -->
<g id="node5" class="node">
<title>md_thumbnail</title>
<ellipse fill="none" stroke="black" cx="787.34" cy="-106.5" rx="65.68" ry="18"/>
<text xml:space="preserve" text-anchor="middle" x="787.34" y="-101.45" font-family="Times,serif" font-size="14.00">md_thumbnail</text>
</g>
<!-- md_input&#45;&gt;md_thumbnail -->
<g id="edge3" class="edge">
<title>md_input&#45;&gt;md_thumbnail</title>
<path fill="none" stroke="black" d="M787.34,-176.91C787.34,-165.26 787.34,-149.55 787.34,-136.02"/>
<polygon fill="black" stroke="black" points="790.84,-136.36 787.34,-126.36 783.84,-136.36 790.84,-136.36"/>
<text xml:space="preserve" text-anchor="middle" x="1029.59" y="-145.7" font-family="Times,serif" font-size="14.00">cap:in=&quot;media:md;textable&quot;;op=generate_thumbnail;out=&quot;media:image;png;thumbnail&quot;</text>
</g>
<!-- md_img_embed -->
<g id="node6" class="node">
<title>md_img_embed</title>
<ellipse fill="none" stroke="black" cx="787.34" cy="-18" rx="72.34" ry="18"/>
<text xml:space="preserve" text-anchor="middle" x="787.34" y="-12.95" font-family="Times,serif" font-size="14.00">md_img_embed</text>
</g>
<!-- md_thumbnail&#45;&gt;md_img_embed -->
<g id="edge4" class="edge">
<title>md_thumbnail&#45;&gt;md_img_embed</title>
<path fill="none" stroke="black" d="M787.34,-88.41C787.34,-76.76 787.34,-61.05 787.34,-47.52"/>
<polygon fill="black" stroke="black" points="790.84,-47.86 787.34,-37.86 783.84,-47.86 790.84,-47.86"/>
<text xml:space="preserve" text-anchor="middle" x="1133.46" y="-57.2" font-family="Times,serif" font-size="14.00">cap:candle;in=&quot;media:image;png&quot;;ml&#45;model;op=generate_image_embeddings;out=&quot;media:embedding&#45;vector;textable;record&quot;</text>
</g>
</g>
</svg>
