<?xml version="1.0" encoding="UTF-8" standalone="no"?>
<!DOCTYPE svg PUBLIC "-//W3C//DTD SVG 1.1//EN"
 "http://www.w3.org/Graphics/SVG/1.1/DTD/svg11.dtd">
<!-- Generated by graphviz version 13.1.2 (20250808.2320)
 -->
<!-- Title: all_text_formats_intelligence Pages: 1 -->
<svg width="6349pt" height="133pt"
 viewBox="0.00 0.00 6349.00 133.00" xmlns="http://www.w3.org/2000/svg" xmlns:xlink="http://www.w3.org/1999/xlink">
<g id="graph0" class="graph" transform="scale(1 1) rotate(0) translate(4 128.5)">
<title>all_text_formats_intelligence</title>
<polygon fill="white" stroke="none" points="-4,4 -4,-128.5 6345.39,-128.5 6345.39,4 -4,4"/>
<!-- md_input -->
<g id="node1" class="node">
<title>md_input</title>
<ellipse fill="none" stroke="black" cx="593.59" cy="-106.5" rx="46.75" ry="18"/>
<text xml:space="preserve" text-anchor="middle" x="593.59" y="-101.45" font-family="Times,serif" font-size="14.00">md_input</text>
</g>
<!-- md_metadata -->
<g id="node2" class="node">
<title>md_metadata</title>
<ellipse fill="none" stroke="black" cx="61.59" cy="-18" rx="61.59" ry="18"/>
<text xml:space="preserve" text-anchor="middle" x="61.59" y="-12.95" font-family="Times,serif" font-size="14.00">md_metadata</text>
</g>
<!-- md_input&#45;&gt;md_metadata -->
<g id="edge1" class="edge">
<title>md_input&#45;&gt;md_metadata</title>
<path fill="none" stroke="black" d="M546.71,-105.18C427.04,-103.96 117.1,-98.15 80.34,-70.5 72.99,-64.97 68.52,-56.28 65.8,-47.6"/>
<polygon fill="black" stroke="black" points="69.21,-46.84 63.49,-37.93 62.41,-48.47 69.21,-46.84"/>
<text xml:space="preserve" text-anchor="middle" x="334.96" y="-57.2" font-family="Times,serif" font-size="14.00">cap:in=&quot;media:md;textable&quot;;op=extract_metadata;out=&quot;media:file&#45;metadata;textable;record&quot;</text>
</g>
<!-- md_outline -->
<g id="node3" class="node">
<title>md_outline</title>
<ellipse fill="none" stroke="black" cx="593.59" cy="-18" rx="53.4" ry="18"/>
<text xml:space="preserve" text-anchor="middle" x="593.59" y="-12.95" font-family="Times,serif" font-size="14.00">md_outline</text>
</g>
<!-- md_input&#45;&gt;md_outline -->
<g id="edge2" class="edge">
<title>md_input&#45;&gt;md_outline</title>
<path fill="none" stroke="black" d="M593.59,-88.41C593.59,-76.76 593.59,-61.05 593.59,-47.52"/>
<polygon fill="black" stroke="black" points="597.09,-47.86 593.59,-37.86 590.09,-47.86 597.09,-47.86"/>
<text xml:space="preserve" text-anchor="middle" x="854.21" y="-57.2" font-family="Times,serif" font-size="14.00">cap:in=&quot;media:md;textable&quot;;op=extract_outline;out=&quot;media:document&#45;outline;textable;record&quot;</text>
</g>
<!-- md_thumbnail -->
<g id="node4" class="node">
<title>md_thumbnail</title>
<ellipse fill="none" stroke="black" cx="1137.59" cy="-18" rx="65.68" ry="18"/>
<text xml:space="preserve" text-anchor="middle" x="1137.59" y="-12.95" font-family="Times,serif" font-size="14.00">md_thumbnail</text>
</g>
<!-- md_input&#45;&gt;md_thumbnail -->
<g id="edge3" class="edge">
<title>md_input&#45;&gt;md_thumbnail</title>
<path fill="none" stroke="black" d="M640.3,-105.12C761.15,-103.77 1077.34,-97.63 1115.59,-70.5 1123.39,-64.96 1128.45,-56.07 1131.72,-47.22"/>
<polygon fill="black" stroke="black" points="1135.04,-48.32 1134.54,-37.74 1128.33,-46.33 1135.04,-48.32"/>
<text xml:space="preserve" text-anchor="middle" x="1370.89" y="-57.2" font-family="Times,serif" font-size="14.00">cap:in=&quot;media:md;textable&quot;;op=generate_thumbnail;out=&quot;media:image;png;thumbnail&quot;</text>
</g>
<!-- txt_input -->
<g id="node5" class="node">
<title>txt_input</title>
<ellipse fill="none" stroke="black" cx="2174.59" cy="-106.5" rx="44.19" ry="18"/>
<text xml:space="preserve" text-anchor="middle" x="2174.59" y="-101.45" font-family="Times,serif" font-size="14.00">txt_input</text>
</g>
<!-- txt_metadata -->
<g id="node6" class="node">
<title>txt_metadata</title>
<ellipse fill="none" stroke="black" cx="1645.59" cy="-18" rx="59.03" ry="18"/>
<text xml:space="preserve" text-anchor="middle" x="1645.59" y="-12.95" font-family="Times,serif" font-size="14.00">txt_metadata</text>
</g>
<!-- txt_input&#45;&gt;txt_metadata -->
<g id="edge4" class="edge">
<title>txt_input&#45;&gt;txt_metadata</title>
<path fill="none" stroke="black" d="M2130.21,-105.16C2013.06,-103.87 1701.97,-97.89 1665.09,-70.5 1657.67,-64.99 1653.07,-56.3 1650.22,-47.62"/>
<polygon fill="black" stroke="black" points="1653.62,-46.77 1647.77,-37.94 1646.84,-48.5 1653.62,-46.77"/>
<text xml:space="preserve" text-anchor="middle" x="1917.84" y="-57.2" font-family="Times,serif" font-size="14.00">cap:in=&quot;media:txt;textable&quot;;op=extract_metadata;out=&quot;media:file&#45;metadata;textable;record&quot;</text>
</g>
<!-- txt_outline -->
<g id="node7" class="node">
<title>txt_outline</title>
<ellipse fill="none" stroke="black" cx="2174.59" cy="-18" rx="50.84" ry="18"/>
<text xml:space="preserve" text-anchor="middle" x="2174.59" y="-12.95" font-family="Times,serif" font-size="14.00">txt_outline</text>
</g>
<!-- txt_input&#45;&gt;txt_outline -->
<g id="edge5" class="edge">
<title>txt_input&#45;&gt;txt_outline</title>
<path fill="none" stroke="black" d="M2174.59,-88.41C2174.59,-76.76 2174.59,-61.05 2174.59,-47.52"/>
<polygon fill="black" stroke="black" points="2178.09,-47.86 2174.59,-37.86 2171.09,-47.86 2178.09,-47.86"/>
<text xml:space="preserve" text-anchor="middle" x="2433.34" y="-57.2" font-family="Times,serif" font-size="14.00">cap:in=&quot;media:txt;textable&quot;;op=extract_outline;out=&quot;media:document&#45;outline;textable;record&quot;</text>
</g>
<!-- txt_thumbnail -->
<g id="node8" class="node">
<title>txt_thumbnail</title>
<ellipse fill="none" stroke="black" cx="2715.59" cy="-18" rx="63.12" ry="18"/>
<text xml:space="preserve" text-anchor="middle" x="2715.59" y="-12.95" font-family="Times,serif" font-size="14.00">txt_thumbnail</text>
</g>
<!-- txt_input&#45;&gt;txt_thumbnail -->
<g id="edge6" class="edge">
<title>txt_input&#45;&gt;txt_thumbnail</title>
<path fill="none" stroke="black" d="M2218.87,-105.13C2337.37,-103.78 2655.34,-97.65 2693.59,-70.5 2701.39,-64.96 2706.45,-56.07 2709.71,-47.22"/>
<polygon fill="black" stroke="black" points="2713.04,-48.32 2712.54,-37.74 2706.33,-46.32 2713.04,-48.32"/>
<text xml:space="preserve" text-anchor="middle" x="2947.01" y="-57.2" font-family="Times,serif" font-size="14.00">cap:in=&quot;media:txt;textable&quot;;op=generate_thumbnail;out=&quot;media:image;png;thumbnail&quot;</text>
</g>
<!-- rst_input -->
<g id="node9" class="node">
<title>rst_input</title>
<ellipse fill="none" stroke="black" cx="3747.59" cy="-106.5" rx="43.67" ry="18"/>
<text xml:space="preserve" text-anchor="middle" x="3747.59" y="-101.45" font-family="Times,serif" font-size="14.00">rst_input</text>
</g>
<!-- rst_metadata -->
<g id="node10" class="node">
<title>rst_metadata</title>
<ellipse fill="none" stroke="black" cx="3219.59" cy="-18" rx="58.52" ry="18"/>
<text xml:space="preserve" text-anchor="middle" x="3219.59" y="-12.95" font-family="Times,serif" font-size="14.00">rst_metadata</text>
</g>
<!-- rst_input&#45;&gt;rst_metadata -->
<g id="edge7" class="edge">
<title>rst_input&#45;&gt;rst_metadata</title>
<path fill="none" stroke="black" d="M3703.69,-105.16C3587.03,-103.9 3275.65,-97.96 3238.84,-70.5 3231.44,-64.98 3226.89,-56.29 3224.08,-47.61"/>
<polygon fill="black" stroke="black" points="3227.49,-46.8 3221.68,-37.94 3220.69,-48.49 3227.49,-46.8"/>
<text xml:space="preserve" text-anchor="middle" x="3491.21" y="-57.2" font-family="Times,serif" font-size="14.00">cap:in=&quot;media:rst;textable&quot;;op=extract_metadata;out=&quot;media:file&#45;metadata;textable;record&quot;</text>
</g>
<!-- rst_outline -->
<g id="node11" class="node">
<title>rst_outline</title>
<ellipse fill="none" stroke="black" cx="3747.59" cy="-18" rx="50.33" ry="18"/>
<text xml:space="preserve" text-anchor="middle" x="3747.59" y="-12.95" font-family="Times,serif" font-size="14.00">rst_outline</text>
</g>
<!-- rst_input&#45;&gt;rst_outline -->
<g id="edge8" class="edge">
<title>rst_input&#45;&gt;rst_outline</title>
<path fill="none" stroke="black" d="M3747.59,-88.41C3747.59,-76.76 3747.59,-61.05 3747.59,-47.52"/>
<polygon fill="black" stroke="black" points="3751.09,-47.86 3747.59,-37.86 3744.09,-47.86 3751.09,-47.86"/>
<text xml:space="preserve" text-anchor="middle" x="4005.96" y="-57.2" font-family="Times,serif" font-size="14.00">cap:in=&quot;media:rst;textable&quot;;op=extract_outline;out=&quot;media:document&#45;outline;textable;record&quot;</text>
</g>
<!-- rst_thumbnail -->
<g id="node12" class="node">
<title>rst_thumbnail</title>
<ellipse fill="none" stroke="black" cx="4287.59" cy="-18" rx="62.61" ry="18"/>
<text xml:space="preserve" text-anchor="middle" x="4287.59" y="-12.95" font-family="Times,serif" font-size="14.00">rst_thumbnail</text>
</g>
<!-- rst_input&#45;&gt;rst_thumbnail -->
<g id="edge9" class="edge">
<title>rst_input&#45;&gt;rst_thumbnail</title>
<path fill="none" stroke="black" d="M3791.36,-105.13C3909.29,-103.78 4227.37,-97.63 4265.59,-70.5 4273.39,-64.96 4278.45,-56.07 4281.71,-47.22"/>
<polygon fill="black" stroke="black" points="4285.04,-48.32 4284.54,-37.74 4278.33,-46.32 4285.04,-48.32"/>
<text xml:space="preserve" text-anchor="middle" x="4518.63" y="-57.2" font-family="Times,serif" font-size="14.00">cap:in=&quot;media:rst;textable&quot;;op=generate_thumbnail;out=&quot;media:image;png;thumbnail&quot;</text>
</g>
<!-- log_input -->
<g id="node13" class="node">
<title>log_input</title>
<ellipse fill="none" stroke="black" cx="5322.59" cy="-106.5" rx="46.23" ry="18"/>
<text xml:space="preserve" text-anchor="middle" x="5322.59" y="-101.45" font-family="Times,serif" font-size="14.00">log_input</text>
</g>
<!-- log_metadata -->
<g id="node14" class="node">
<title>log_metadata</title>
<ellipse fill="none" stroke="black" cx="4790.59" cy="-18" rx="61.08" ry="18"/>
<text xml:space="preserve" text-anchor="middle" x="4790.59" y="-12.95" font-family="Times,serif" font-size="14.00">log_metadata</text>
</g>
<!-- log_input&#45;&gt;log_metadata -->
<g id="edge10" class="edge">
<title>log_input&#45;&gt;log_metadata</title>
<path fill="none" stroke="black" d="M5276.23,-105.15C5157.1,-103.87 4847.01,-97.91 4810.09,-70.5 4802.67,-64.99 4798.07,-56.3 4795.22,-47.62"/>
<polygon fill="black" stroke="black" points="4798.62,-46.78 4792.77,-37.94 4791.84,-48.5 4798.62,-46.78"/>
<text xml:space="preserve" text-anchor="middle" x="5064.34" y="-57.2" font-family="Times,serif" font-size="14.00">cap:in=&quot;media:log;textable&quot;;op=extract_metadata;out=&quot;media:file&#45;metadata;textable;record&quot;</text>
</g>
<!-- log_outline -->
<g id="node15" class="node">
<title>log_outline</title>
<ellipse fill="none" stroke="black" cx="5322.59" cy="-18" rx="52.89" ry="18"/>
<text xml:space="preserve" text-anchor="middle" x="5322.59" y="-12.95" font-family="Times,serif" font-size="14.00">log_outline</text>
</g>
<!-- log_input&#45;&gt;log_outline -->
<g id="edge11" class="edge">
<title>log_input&#45;&gt;log_outline</title>
<path fill="none" stroke="black" d="M5322.59,-88.41C5322.59,-76.76 5322.59,-61.05 5322.59,-47.52"/>
<polygon fill="black" stroke="black" points="5326.09,-47.86 5322.59,-37.86 5319.09,-47.86 5326.09,-47.86"/>
<text xml:space="preserve" text-anchor="middle" x="5582.84" y="-57.2" font-family="Times,serif" font-size="14.00">cap:in=&quot;media:log;textable&quot;;op=extract_outline;out=&quot;media:document&#45;outline;textable;record&quot;</text>
</g>
<!-- log_thumbnail -->
<g id="node16" class="node">
<title>log_thumbnail</title>
<ellipse fill="none" stroke="black" cx="5866.59" cy="-18" rx="65.17" ry="18"/>
<text xml:space="preserve" text-anchor="middle" x="5866.59" y="-12.95" font-family="Times,serif" font-size="14.00">log_thumbnail</text>
</g>
<!-- log_input&#45;&gt;log_thumbnail -->
<g id="edge12" class="edge">
<title>log_input&#45;&gt;log_thumbnail</title>
<path fill="none" stroke="black" d="M5368.86,-105.13C5489.38,-103.78 5806.3,-97.66 5844.59,-70.5 5852.39,-64.96 5857.45,-56.07 5860.72,-47.22"/>
<polygon fill="black" stroke="black" points="5864.04,-48.32 5863.54,-37.74 5857.33,-46.33 5864.04,-48.32"/>
<text xml:space="preserve" text-anchor="middle" x="6099.51" y="-57.2" font-family="Times,serif" font-size="14.00">cap:in=&quot;media:log;textable&quot;;op=generate_thumbnail;out=&quot;media:image;png;thumbnail&quot;</text>
</g>
</g>
</svg>
