<?xml version="1.0" encoding="UTF-8" standalone="no"?>
<!DOCTYPE svg PUBLIC "-//W3C//DTD SVG 1.1//EN"
 "http://www.w3.org/Graphics/SVG/1.1/DTD/svg11.dtd">
<!-- Generated by graphviz version 13.1.2 (20250808.2320)
 -->
<!-- Title: rst_document_intelligence Pages: 1 -->
<svg width="1592pt" height="133pt"
 viewBox="0.00 0.00 1592.00 133.00" xmlns="http://www.w3.org/2000/svg" xmlns:xlink="http://www.w3.org/1999/xlink">
<g id="graph0" class="graph" transform="scale(1 1) rotate(0) translate(4 128.5)">
<title>rst_document_intelligence</title>
<polygon fill="white" stroke="none" points="-4,4 -4,-128.5 1587.74,-128.5 1587.74,4 -4,4"/>
<!-- rst_input -->
<g id="node1" class="node">
<title>rst_input</title>
<ellipse fill="none" stroke="black" cx="572.7" cy="-106.5" rx="43.67" ry="18"/>
<text xml:space="preserve" text-anchor="middle" x="572.7" y="-101.45" font-family="Times,serif" font-size="14.00">rst_input</text>
</g>
<!-- metadata -->
<g id="node2" class="node">
<title>metadata</title>
<ellipse fill="none" stroke="black" cx="44.7" cy="-18" rx="44.7" ry="18"/>
<text xml:space="preserve" text-anchor="middle" x="44.7" y="-12.95" font-family="Times,serif" font-size="14.00">metadata</text>
</g>
<!-- rst_input&#45;&gt;metadata -->
<g id="edge1" class="edge">
<title>rst_input&#45;&gt;metadata</title>
<path fill="none" stroke="black" d="M528.8,-105.16C412.14,-103.9 100.76,-97.96 63.95,-70.5 56.55,-64.98 52,-56.29 49.19,-47.61"/>
<polygon fill="black" stroke="black" points="52.6,-46.8 46.79,-37.94 45.8,-48.49 52.6,-46.8"/>
<text xml:space="preserve" text-anchor="middle" x="316.32" y="-57.2" font-family="Times,serif" font-size="14.00">cap:in=&quot;media:rst;textable&quot;;op=extract_metadata;out=&quot;media:file&#45;metadata;textable;record&quot;</text>
</g>
<!-- outline -->
<g id="node3" class="node">
<title>outline</title>
<ellipse fill="none" stroke="black" cx="572.7" cy="-18" rx="36.51" ry="18"/>
<text xml:space="preserve" text-anchor="middle" x="572.7" y="-12.95" font-family="Times,serif" font-size="14.00">outline</text>
</g>
<!-- rst_input&#45;&gt;outline -->
<g id="edge2" class="edge">
<title>rst_input&#45;&gt;outline</title>
<path fill="none" stroke="black" d="M572.7,-88.41C572.7,-76.76 572.7,-61.05 572.7,-47.52"/>
<polygon fill="black" stroke="black" points="576.2,-47.86 572.7,-37.86 569.2,-47.86 576.2,-47.86"/>
<text xml:space="preserve" text-anchor="middle" x="831.07" y="-57.2" font-family="Times,serif" font-size="14.00">cap:in=&quot;media:rst;textable&quot;;op=extract_outline;out=&quot;media:document&#45;outline;textable;record&quot;</text>
</g>
<!-- thumbnail -->
<g id="node4" class="node">
<title>thumbnail</title>
<ellipse fill="none" stroke="black" cx="1112.7" cy="-18" rx="48.79" ry="18"/>
<text xml:space="preserve" text-anchor="middle" x="1112.7" y="-12.95" font-family="Times,serif" font-size="14.00">thumbnail</text>
</g>
<!-- rst_input&#45;&gt;thumbnail -->
<g id="edge3" class="edge">
<title>rst_input&#45;&gt;thumbnail</title>
<path fill="none" stroke="black" d="M616.47,-105.13C734.4,-103.78 1052.48,-97.63 1090.7,-70.5 1098.5,-64.96 1103.56,-56.07 1106.82,-47.22"/>
<polygon fill="black" stroke="black" points="1110.15,-48.32 1109.65,-37.74 1103.44,-46.32 1110.15,-48.32"/>
<text xml:space="preserve" text-anchor="middle" x="1343.74" y="-57.2" font-family="Times,serif" font-size="14.00">cap:in=&quot;media:rst;textable&quot;;op=generate_thumbnail;out=&quot;media:image;png;thumbnail&quot;</text>
</g>
</g>
</svg>
