<?xml version="1.0" encoding="UTF-8" standalone="no"?>
<!DOCTYPE svg PUBLIC "-//W3C//DTD SVG 1.1//EN"
 "http://www.w3.org/Graphics/SVG/1.1/DTD/svg11.dtd">
<!-- Generated by graphviz version 13.1.2 (20250808.2320)
 -->
<!-- Title: txt_document_intelligence Pages: 1 -->
<svg width="1594pt" height="133pt"
 viewBox="0.00 0.00 1594.00 133.00" xmlns="http://www.w3.org/2000/svg" xmlns:xlink="http://www.w3.org/1999/xlink">
<g id="graph0" class="graph" transform="scale(1 1) rotate(0) translate(4 128.5)">
<title>txt_document_intelligence</title>
<polygon fill="white" stroke="none" points="-4,4 -4,-128.5 1590.5,-128.5 1590.5,4 -4,4"/>
<!-- txt_input -->
<g id="node1" class="node">
<title>txt_input</title>
<ellipse fill="none" stroke="black" cx="573.7" cy="-106.5" rx="44.19" ry="18"/>
<text xml:space="preserve" text-anchor="middle" x="573.7" y="-101.45" font-family="Times,serif" font-size="14.00">txt_input</text>
</g>
<!-- metadata -->
<g id="node2" class="node">
<title>metadata</title>
<ellipse fill="none" stroke="black" cx="44.7" cy="-18" rx="44.7" ry="18"/>
<text xml:space="preserve" text-anchor="middle" x="44.7" y="-12.95" font-family="Times,serif" font-size="14.00">metadata</text>
</g>
<!-- txt_input&#45;&gt;metadata -->
<g id="edge1" class="edge">
<title>txt_input&#45;&gt;metadata</title>
<path fill="none" stroke="black" d="M529.32,-105.16C412.17,-103.87 101.08,-97.89 64.2,-70.5 56.78,-64.99 52.18,-56.3 49.34,-47.62"/>
<polygon fill="black" stroke="black" points="52.73,-46.77 46.88,-37.94 45.95,-48.5 52.73,-46.77"/>
<text xml:space="preserve" text-anchor="middle" x="316.95" y="-57.2" font-family="Times,serif" font-size="14.00">cap:in=&quot;media:txt;textable&quot;;op=extract_metadata;out=&quot;media:file&#45;metadata;textable;record&quot;</text>
</g>
<!-- outline -->
<g id="node3" class="node">
<title>outline</title>
<ellipse fill="none" stroke="black" cx="573.7" cy="-18" rx="36.51" ry="18"/>
<text xml:space="preserve" text-anchor="middle" x="573.7" y="-12.95" font-family="Times,serif" font-size="14.00">outline</text>
</g>
<!-- txt_input&#45;&gt;outline -->
<g id="edge2" class="edge">
<title>txt_input&#45;&gt;outline</title>
<path fill="none" stroke="black" d="M573.7,-88.41C573.7,-76.76 573.7,-61.05 573.7,-47.52"/>
<polygon fill="black" stroke="black" points="577.2,-47.86 573.7,-37.86 570.2,-47.86 577.2,-47.86"/>
<text xml:space="preserve" text-anchor="middle" x="832.45" y="-57.2" font-family="Times,serif" font-size="14.00">cap:in=&quot;media:txt;textable&quot;;op=extract_outline;out=&quot;media:document&#45;outline;textable;record&quot;</text>
</g>
<!-- thumbnail -->
<g id="node4" class="node">
<title>thumbnail</title>
<ellipse fill="none" stroke="black" cx="1114.7" cy="-18" rx="48.79" ry="18"/>
<text xml:space="preserve" text-anchor="middle" x="1114.7" y="-12.95" font-family="Times,serif" font-size="14.00">thumbnail</text>
</g>
<!-- txt_input&#45;&gt;thumbnail -->
<g id="edge3" class="edge">
<title>txt_input&#45;&gt;thumbnail</title>
<path fill="none" stroke="black" d="M617.98,-105.13C736.48,-103.78 1054.45,-97.65 1092.7,-70.5 1100.5,-64.96 1105.56,-56.07 1108.82,-47.22"/>
<polygon fill="black" stroke="black" points="1112.15,-48.32 1111.65,-37.74 1105.44,-46.32 1112.15,-48.32"/>
<text xml:space="preserve" text-anchor="middle" x="1346.12" y="-57.2" font-family="Times,serif" font-size="14.00">cap:in=&quot;media:txt;textable&quot;;op=generate_thumbnail;out=&quot;media:image;png;thumbnail&quot;</text>
</g>
</g>
</svg>
