<?xml version="1.0" encoding="UTF-8" standalone="no"?>
<!DOCTYPE svg PUBLIC "-//W3C//DTD SVG 1.1//EN"
 "http://www.w3.org/Graphics/SVG/1.1/DTD/svg11.dtd">
<!-- Generated by graphviz version 13.1.2 (20250808.2320)
 -->
<!-- Title: log_document_intelligence Pages: 1 -->
<svg width="1603pt" height="133pt"
 viewBox="0.00 0.00 1603.00 133.00" xmlns="http://www.w3.org/2000/svg" xmlns:xlink="http://www.w3.org/1999/xlink">
<g id="graph0" class="graph" transform="scale(1 1) rotate(0) translate(4 128.5)">
<title>log_document_intelligence</title>
<polygon fill="white" stroke="none" points="-4,4 -4,-128.5 1599.5,-128.5 1599.5,4 -4,4"/>
<!-- log_input -->
<g id="node1" class="node">
<title>log_input</title>
<ellipse fill="none" stroke="black" cx="576.7" cy="-106.5" rx="46.23" ry="18"/>
<text xml:space="preserve" text-anchor="middle" x="576.7" y="-101.45" font-family="Times,serif" font-size="14.00">log_input</text>
</g>
<!-- metadata -->
<g id="node2" class="node">
<title>metadata</title>
<ellipse fill="none" stroke="black" cx="44.7" cy="-18" rx="44.7" ry="18"/>
<text xml:space="preserve" text-anchor="middle" x="44.7" y="-12.95" font-family="Times,serif" font-size="14.00">metadata</text>
</g>
<!-- log_input&#45;&gt;metadata -->
<g id="edge1" class="edge">
<title>log_input&#45;&gt;metadata</title>
<path fill="none" stroke="black" d="M530.34,-105.15C411.21,-103.87 101.12,-97.91 64.2,-70.5 56.78,-64.99 52.18,-56.3 49.33,-47.62"/>
<polygon fill="black" stroke="black" points="52.73,-46.78 46.88,-37.94 45.95,-48.5 52.73,-46.78"/>
<text xml:space="preserve" text-anchor="middle" x="318.45" y="-57.2" font-family="Times,serif" font-size="14.00">cap:in=&quot;media:log;textable&quot;;op=extract_metadata;out=&quot;media:file&#45;metadata;textable;record&quot;</text>
</g>
<!-- outline -->
<g id="node3" class="node">
<title>outline</title>
<ellipse fill="none" stroke="black" cx="576.7" cy="-18" rx="36.51" ry="18"/>
<text xml:space="preserve" text-anchor="middle" x="576.7" y="-12.95" font-family="Times,serif" font-size="14.00">outline</text>
</g>
<!-- log_input&#45;&gt;outline -->
<g id="edge2" class="edge">
<title>log_input&#45;&gt;outline</title>
<path fill="none" stroke="black" d="M576.7,-88.41C576.7,-76.76 576.7,-61.05 576.7,-47.52"/>
<polygon fill="black" stroke="black" points="580.2,-47.86 576.7,-37.86 573.2,-47.86 580.2,-47.86"/>
<text xml:space="preserve" text-anchor="middle" x="836.95" y="-57.2" font-family="Times,serif" font-size="14.00">cap:in=&quot;media:log;textable&quot;;op=extract_outline;out=&quot;media:document&#45;outline;textable;record&quot;</text>
</g>
<!-- thumbnail -->
<g id="node4" class="node">
<title>thumbnail</title>
<ellipse fill="none" stroke="black" cx="1120.7" cy="-18" rx="48.79" ry="18"/>
<text xml:space="preserve" text-anchor="middle" x="1120.7" y="-12.95" font-family="Times,serif" font-size="14.00">thumbnail</text>
</g>
<!-- log_input&#45;&gt;thumbnail -->
<g id="edge3" class="edge">
<title>log_input&#45;&gt;thumbnail</title>
<path fill="none" stroke="black" d="M622.97,-105.13C743.49,-103.78 1060.41,-97.66 1098.7,-70.5 1106.5,-64.96 1111.56,-56.07 1114.83,-47.22"/>
<polygon fill="black" stroke="black" points="1118.15,-48.32 1117.65,-37.74 1111.44,-46.33 1118.15,-48.32"/>
<text xml:space="preserve" text-anchor="middle" x="1353.62" y="-57.2" font-family="Times,serif" font-size="14.00">cap:in=&quot;media:log;textable&quot;;op=generate_thumbnail;out=&quot;media:image;png;thumbnail&quot;</text>
</g>
</g>
</svg>
