<?xml version="1.0" encoding="UTF-8" standalone="no"?>
<!DOCTYPE svg PUBLIC "-//W3C//DTD SVG 1.1//EN"
 "http://www.w3.org/Graphics/SVG/1.1/DTD/svg11.dtd">
<!-- Generated by graphviz version 13.1.2 (20250808.2320)
 -->
<!-- Title: pdf_complete_analysis Pages: 1 -->
<svg width="1835pt" height="133pt"
 viewBox="0.00 0.00 1835.00 133.00" xmlns="http://www.w3.org/2000/svg" xmlns:xlink="http://www.w3.org/1999/xlink">
<g id="graph0" class="graph" transform="scale(1 1) rotate(0) translate(4 128.5)">
<title>pdf_complete_analysis</title>
<polygon fill="white" stroke="none" points="-4,4 -4,-128.5 1830.97,-128.5 1830.97,4 -4,4"/>
<!-- pdf_input -->
<g id="node1" class="node">
<title>pdf_input</title>
<ellipse fill="none" stroke="black" cx="761.7" cy="-106.5" rx="46.75" ry="18"/>
<text xml:space="preserve" text-anchor="middle" x="761.7" y="-101.45" font-family="Times,serif" font-size="14.00">pdf_input</text>
</g>
<!-- metadata -->
<g id="node2" class="node">
<title>metadata</title>
<ellipse fill="none" stroke="black" cx="44.7" cy="-18" rx="44.7" ry="18"/>
<text xml:space="preserve" text-anchor="middle" x="44.7" y="-12.95" font-family="Times,serif" font-size="14.00">metadata</text>
</g>
<!-- pdf_input&#45;&gt;metadata -->
<g id="edge1" class="edge">
<title>pdf_input&#45;&gt;metadata</title>
<path fill="none" stroke="black" d="M714.83,-104.66C561.72,-101.74 84.54,-91 58.95,-70.5 51.9,-64.85 48.15,-56.06 46.21,-47.32"/>
<polygon fill="black" stroke="black" points="49.71,-47.03 44.8,-37.64 42.78,-48.04 49.71,-47.03"/>
<text xml:space="preserve" text-anchor="middle" x="284.32" y="-57.2" font-family="Times,serif" font-size="14.00">cap:in=media:pdf;op=extract_metadata;out=&quot;media:file&#45;metadata;textable;record&quot;</text>
</g>
<!-- outline -->
<g id="node3" class="node">
<title>outline</title>
<ellipse fill="none" stroke="black" cx="518.7" cy="-18" rx="36.51" ry="18"/>
<text xml:space="preserve" text-anchor="middle" x="518.7" y="-12.95" font-family="Times,serif" font-size="14.00">outline</text>
</g>
<!-- pdf_input&#45;&gt;outline -->
<g id="edge2" class="edge">
<title>pdf_input&#45;&gt;outline</title>
<path fill="none" stroke="black" d="M714.76,-105.59C651.79,-104.61 544.96,-98.7 519.95,-70.5 514.46,-64.32 512.77,-55.88 512.86,-47.63"/>
<polygon fill="black" stroke="black" points="516.33,-48.14 513.8,-37.85 509.36,-47.47 516.33,-48.14"/>
<text xml:space="preserve" text-anchor="middle" x="751.32" y="-57.2" font-family="Times,serif" font-size="14.00">cap:in=media:pdf;op=extract_outline;out=&quot;media:document&#45;outline;textable;record&quot;</text>
</g>
<!-- thumbnail -->
<g id="node4" class="node">
<title>thumbnail</title>
<ellipse fill="none" stroke="black" cx="1004.7" cy="-18" rx="48.79" ry="18"/>
<text xml:space="preserve" text-anchor="middle" x="1004.7" y="-12.95" font-family="Times,serif" font-size="14.00">thumbnail</text>
</g>
<!-- pdf_input&#45;&gt;thumbnail -->
<g id="edge3" class="edge">
<title>pdf_input&#45;&gt;thumbnail</title>
<path fill="none" stroke="black" d="M807.97,-103.36C864.59,-99.88 956.2,-91.16 982.7,-70.5 990.25,-64.62 995.24,-55.64 998.53,-46.83"/>
<polygon fill="black" stroke="black" points="1001.83,-48.02 1001.41,-37.43 995.14,-45.97 1001.83,-48.02"/>
<text xml:space="preserve" text-anchor="middle" x="1207.77" y="-57.2" font-family="Times,serif" font-size="14.00">cap:in=media:pdf;op=generate_thumbnail;out=&quot;media:image;png;thumbnail&quot;</text>
</g>
<!-- pages -->
<g id="node5" class="node">
<title>pages</title>
<ellipse fill="none" stroke="black" cx="1453.7" cy="-18" rx="31.9" ry="18"/>
<text xml:space="preserve" text-anchor="middle" x="1453.7" y="-12.95" font-family="Times,serif" font-size="14.00">pages</text>
</g>
<!-- pdf_input&#45;&gt;pages -->
<g id="edge4" class="edge">
<title>pdf_input&#45;&gt;pages</title>
<path fill="none" stroke="black" d="M808.87,-105.61C951.68,-105.58 1372.76,-102.73 1424.7,-70.5 1433.53,-65.02 1439.92,-55.8 1444.41,-46.67"/>
<polygon fill="black" stroke="black" points="1447.57,-48.19 1448.25,-37.62 1441.12,-45.46 1447.57,-48.19"/>
<text xml:space="preserve" text-anchor="middle" x="1633.47" y="-57.2" font-family="Times,serif" font-size="14.00">cap:in=media:pdf;op=disbind;out=&quot;media:disbound&#45;page;textable;list&quot;</text>
</g>
</g>
</svg>
