<?xml version="1.0" encoding="UTF-8" standalone="no"?>
<!DOCTYPE svg PUBLIC "-//W3C//DTD SVG 1.1//EN"
 "http://www.w3.org/Graphics/SVG/1.1/DTD/svg11.dtd">
<!-- Generated by graphviz version 13.1.2 (20250808.2320)
 -->
<!-- Title: gguf_all_llm_ops Pages: 1 -->
<svg width="3204pt" height="133pt"
 viewBox="0.00 0.00 3204.00 133.00" xmlns="http://www.w3.org/2000/svg" xmlns:xlink="http://www.w3.org/1999/xlink">
<g id="graph0" class="graph" transform="scale(1 1) rotate(0) translate(4 128.5)">
<title>gguf_all_llm_ops</title>
<polygon fill="white" stroke="none" points="-4,4 -4,-128.5 3199.93,-128.5 3199.93,4 -4,4"/>
<!-- request_input -->
<g id="node1" class="node">
<title>request_input</title>
<ellipse fill="none" stroke="black" cx="1177.91" cy="-106.5" rx="61.08" ry="18"/>
<text xml:space="preserve" text-anchor="middle" x="1177.91" y="-101.45" font-family="Times,serif" font-size="14.00">request_input</text>
</g>
<!-- model_info -->
<g id="node2" class="node">
<title>model_info</title>
<ellipse fill="none" stroke="black" cx="53.91" cy="-18" rx="53.91" ry="18"/>
<text xml:space="preserve" text-anchor="middle" x="53.91" y="-12.95" font-family="Times,serif" font-size="14.00">model_info</text>
</g>
<!-- request_input&#45;&gt;model_info -->
<g id="edge1" class="edge">
<title>request_input&#45;&gt;model_info</title>
<path fill="none" stroke="black" d="M1116.48,-105.57C889.53,-105.56 109.26,-103.16 67.91,-70.5 60.88,-64.95 57.17,-56.25 55.26,-47.57"/>
<polygon fill="black" stroke="black" points="58.76,-47.34 53.89,-37.94 51.83,-48.33 58.76,-47.34"/>
<text xml:space="preserve" text-anchor="middle" x="432.41" y="-57.2" font-family="Times,serif" font-size="14.00">cap:gguf;in=&quot;media:llm&#45;generation&#45;request;json;record&quot;;llm;ml&#45;model;op=llm_model_info;out=&quot;media:llm&#45;model&#45;info;json;record&quot;</text>
</g>
<!-- vocab -->
<g id="node3" class="node">
<title>vocab</title>
<ellipse fill="none" stroke="black" cx="805.91" cy="-18" rx="32.93" ry="18"/>
<text xml:space="preserve" text-anchor="middle" x="805.91" y="-12.95" font-family="Times,serif" font-size="14.00">vocab</text>
</g>
<!-- request_input&#45;&gt;vocab -->
<g id="edge2" class="edge">
<title>request_input&#45;&gt;vocab</title>
<path fill="none" stroke="black" d="M1116.97,-104.07C1017.24,-101.1 828.12,-92.6 807.41,-70.5 801.67,-64.38 799.94,-55.83 800.05,-47.45"/>
<polygon fill="black" stroke="black" points="803.53,-47.8 801.04,-37.5 796.56,-47.1 803.53,-47.8"/>
<text xml:space="preserve" text-anchor="middle" x="1168.16" y="-57.2" font-family="Times,serif" font-size="14.00">cap:gguf;in=&quot;media:llm&#45;generation&#45;request;json;record&quot;;llm;ml&#45;model;op=llm_vocab;out=&quot;media:llm&#45;vocab&#45;response;json;record&quot;</text>
</g>
<!-- generation -->
<g id="node4" class="node">
<title>generation</title>
<ellipse fill="none" stroke="black" cx="1550.91" cy="-18" rx="49.82" ry="18"/>
<text xml:space="preserve" text-anchor="middle" x="1550.91" y="-12.95" font-family="Times,serif" font-size="14.00">generation</text>
</g>
<!-- request_input&#45;&gt;generation -->
<g id="edge3" class="edge">
<title>request_input&#45;&gt;generation</title>
<path fill="none" stroke="black" d="M1237.9,-102.82C1332.01,-98.13 1506.02,-87.31 1528.91,-70.5 1536.63,-64.84 1541.66,-55.91 1544.94,-47.08"/>
<polygon fill="black" stroke="black" points="1548.25,-48.21 1547.78,-37.63 1541.54,-46.2 1548.25,-48.21"/>
<text xml:space="preserve" text-anchor="middle" x="1916.86" y="-57.2" font-family="Times,serif" font-size="14.00">cap:gguf;in=&quot;media:llm&#45;generation&#45;request;json;record&quot;;llm;ml&#45;model;op=llm_inference;out=&quot;media:llm&#45;text&#45;stream;ndjson;streaming&quot;</text>
</g>
<!-- constrained_generation -->
<g id="node5" class="node">
<title>constrained_generation</title>
<ellipse fill="none" stroke="black" cx="2323.91" cy="-18" rx="96.9" ry="18"/>
<text xml:space="preserve" text-anchor="middle" x="2323.91" y="-12.95" font-family="Times,serif" font-size="14.00">constrained_generation</text>
</g>
<!-- request_input&#45;&gt;constrained_generation -->
<g id="edge4" class="edge">
<title>request_input&#45;&gt;constrained_generation</title>
<path fill="none" stroke="black" d="M1239.16,-105.26C1466.44,-104.16 2250.7,-98.35 2295.91,-70.5 2304.69,-65.09 2310.91,-55.89 2315.22,-46.76"/>
<polygon fill="black" stroke="black" points="2318.38,-48.27 2318.87,-37.69 2311.88,-45.66 2318.38,-48.27"/>
<text xml:space="preserve" text-anchor="middle" x="2753.43" y="-57.2" font-family="Times,serif" font-size="14.00">cap:constrained;gguf;in=&quot;media:llm&#45;generation&#45;request;json;record&quot;;llm;ml&#45;model;op=llm_inference_constrained;out=&quot;media:llm&#45;text&#45;stream;ndjson;streaming&quot;</text>
</g>
</g>
</svg>
