<?xml version="1.0" encoding="UTF-8" standalone="no"?>
<!DOCTYPE svg PUBLIC "-//W3C//DTD SVG 1.1//EN"
 "http://www.w3.org/Graphics/SVG/1.1/DTD/svg11.dtd">
<!-- Generated by graphviz version 13.1.2 (20250808.2320)
 -->
<!-- Title: gguf_vision Pages: 1 -->
<svg width="1289pt" height="133pt"
 viewBox="0.00 0.00 1289.00 133.00" xmlns="http://www.w3.org/2000/svg" xmlns:xlink="http://www.w3.org/1999/xlink">
<g id="graph0" class="graph" transform="scale(1 1) rotate(0) translate(4 128.5)">
<title>gguf_vision</title>
<polygon fill="white" stroke="none" points="-4,4 -4,-128.5 1285.33,-128.5 1285.33,4 -4,4"/>
<!-- model_spec -->
<g id="node1" class="node">
<title>model_spec</title>
<ellipse fill="none" stroke="black" cx="55.45" cy="-106.5" rx="55.45" ry="18"/>
<text xml:space="preserve" text-anchor="middle" x="55.45" y="-101.45" font-family="Times,serif" font-size="14.00">model_spec</text>
</g>
<!-- description -->
<g id="node3" class="node">
<title>description</title>
<ellipse fill="none" stroke="black" cx="369.45" cy="-18" rx="51.86" ry="18"/>
<text xml:space="preserve" text-anchor="middle" x="369.45" y="-12.95" font-family="Times,serif" font-size="14.00">description</text>
</g>
<!-- model_spec&#45;&gt;description -->
<g id="edge2" class="edge">
<title>model_spec&#45;&gt;description</title>
<path fill="none" stroke="black" d="M50.5,-88.08C48.48,-76.96 48.25,-62.99 56.45,-54 72.98,-35.88 220.12,-25.96 306.65,-21.66"/>
<polygon fill="black" stroke="black" points="306.59,-25.16 316.41,-21.18 306.25,-18.17 306.59,-25.16"/>
<text xml:space="preserve" text-anchor="middle" x="359.45" y="-57.2" font-family="Times,serif" font-size="14.00">cap:gguf;in=&quot;media:image;png&quot;;ml&#45;model;op=describe_image;out=&quot;media:image&#45;description;textable&quot;;vision</text>
</g>
<!-- image_input -->
<g id="node2" class="node">
<title>image_input</title>
<ellipse fill="none" stroke="black" cx="684.45" cy="-106.5" rx="57.49" ry="18"/>
<text xml:space="preserve" text-anchor="middle" x="684.45" y="-101.45" font-family="Times,serif" font-size="14.00">image_input</text>
</g>
<!-- image_input&#45;&gt;description -->
<g id="edge1" class="edge">
<title>image_input&#45;&gt;description</title>
<path fill="none" stroke="black" d="M681.7,-88.39C678.9,-76.8 673.34,-62.16 662.45,-54 627.3,-27.67 507.81,-20.91 432.72,-19.31"/>
<polygon fill="black" stroke="black" points="433.1,-15.82 423.03,-19.14 432.97,-22.82 433.1,-15.82"/>
<text xml:space="preserve" text-anchor="middle" x="978.33" y="-57.2" font-family="Times,serif" font-size="14.00">cap:gguf;in=&quot;media:image;png&quot;;ml&#45;model;op=describe_image;out=&quot;media:image&#45;description;textable&quot;;vision</text>
</g>
</g>
</svg>
