<?xml version="1.0" encoding="UTF-8" standalone="no"?>
<!DOCTYPE svg PUBLIC "-//W3C//DTD SVG 1.1//EN"
 "http://www.w3.org/Graphics/SVG/1.1/DTD/svg11.dtd">
<!-- Generated by graphviz version 13.1.2 (20250808.2320)
 -->
<!-- Title: pdf_document_intelligence Pages: 1 -->
<svg width="1430pt" height="133pt"
 viewBox="0.00 0.00 1430.00 133.00" xmlns="http://www.w3.org/2000/svg" xmlns:xlink="http://www.w3.org/1999/xlink">
<g id="graph0" class="graph" transform="scale(1 1) rotate(0) translate(4 128.5)">
<title>pdf_document_intelligence</title>
<polygon fill="white" stroke="none" points="-4,4 -4,-128.5 1425.72,-128.5 1425.72,4 -4,4"/>
<!-- pdf_input -->
<g id="node1" class="node">
<title>pdf_input</title>
<ellipse fill="none" stroke="black" cx="518.7" cy="-106.5" rx="46.75" ry="18"/>
<text xml:space="preserve" text-anchor="middle" x="518.7" y="-101.45" font-family="Times,serif" font-size="14.00">pdf_input</text>
</g>
<!-- metadata -->
<g id="node2" class="node">
<title>metadata</title>
<ellipse fill="none" stroke="black" cx="44.7" cy="-18" rx="44.7" ry="18"/>
<text xml:space="preserve" text-anchor="middle" x="44.7" y="-12.95" font-family="Times,serif" font-size="14.00">metadata</text>
</g>
<!-- pdf_input&#45;&gt;metadata -->
<g id="edge1" class="edge">
<title>pdf_input&#45;&gt;metadata</title>
<path fill="none" stroke="black" d="M472.02,-104.72C362.53,-102.49 96.02,-94.63 63.95,-70.5 56.58,-64.95 52.03,-56.26 49.22,-47.57"/>
<polygon fill="black" stroke="black" points="52.62,-46.76 46.81,-37.91 45.83,-48.46 52.62,-46.76"/>
<text xml:space="preserve" text-anchor="middle" x="289.32" y="-57.2" font-family="Times,serif" font-size="14.00">cap:in=media:pdf;op=extract_metadata;out=&quot;media:file&#45;metadata;textable;record&quot;</text>
</g>
<!-- outline -->
<g id="node3" class="node">
<title>outline</title>
<ellipse fill="none" stroke="black" cx="518.7" cy="-18" rx="36.51" ry="18"/>
<text xml:space="preserve" text-anchor="middle" x="518.7" y="-12.95" font-family="Times,serif" font-size="14.00">outline</text>
</g>
<!-- pdf_input&#45;&gt;outline -->
<g id="edge2" class="edge">
<title>pdf_input&#45;&gt;outline</title>
<path fill="none" stroke="black" d="M518.7,-88.41C518.7,-76.76 518.7,-61.05 518.7,-47.52"/>
<polygon fill="black" stroke="black" points="522.2,-47.86 518.7,-37.86 515.2,-47.86 522.2,-47.86"/>
<text xml:space="preserve" text-anchor="middle" x="750.07" y="-57.2" font-family="Times,serif" font-size="14.00">cap:in=media:pdf;op=extract_outline;out=&quot;media:document&#45;outline;textable;record&quot;</text>
</g>
<!-- thumbnail -->
<g id="node4" class="node">
<title>thumbnail</title>
<ellipse fill="none" stroke="black" cx="1004.7" cy="-18" rx="48.79" ry="18"/>
<text xml:space="preserve" text-anchor="middle" x="1004.7" y="-12.95" font-family="Times,serif" font-size="14.00">thumbnail</text>
</g>
<!-- pdf_input&#45;&gt;thumbnail -->
<g id="edge3" class="edge">
<title>pdf_input&#45;&gt;thumbnail</title>
<path fill="none" stroke="black" d="M565.43,-104.7C676.46,-102.41 949.32,-94.39 982.7,-70.5 990.48,-64.93 995.53,-56.03 998.8,-47.18"/>
<polygon fill="black" stroke="black" points="1002.12,-48.29 1001.63,-37.71 995.41,-46.29 1002.12,-48.29"/>
<text xml:space="preserve" text-anchor="middle" x="1208.72" y="-57.2" font-family="Times,serif" font-size="14.00">cap:in=media:pdf;op=generate_thumbnail;out=&quot;media:image;png;thumbnail&quot;</text>
</g>
</g>
</svg>
