<?xml version="1.0" encoding="UTF-8" standalone="no"?>
<!DOCTYPE svg PUBLIC "-//W3C//DTD SVG 1.1//EN"
 "http://www.w3.org/Graphics/SVG/1.1/DTD/svg11.dtd">
<!-- Generated by graphviz version 13.1.2 (20250808.2320)
 -->
<!-- Title: deep_chain_with_parallel Pages: 1 -->
<svg width="1512pt" height="310pt"
 viewBox="0.00 0.00 1512.00 310.00" xmlns="http://www.w3.org/2000/svg" xmlns:xlink="http://www.w3.org/1999/xlink">
<g id="graph0" class="graph" transform="scale(1 1) rotate(0) translate(4 305.5)">
<title>deep_chain_with_parallel</title>
<polygon fill="white" stroke="none" points="-4,4 -4,-305.5 1507.81,-305.5 1507.81,4 -4,4"/>
<!-- pdf_input -->
<g id="node1" class="node">
<title>pdf_input</title>
<ellipse fill="none" stroke="black" cx="281.7" cy="-283.5" rx="46.75" ry="18"/>
<text xml:space="preserve" text-anchor="middle" x="281.7" y="-278.45" font-family="Times,serif" font-size="14.00">pdf_input</text>
</g>
<!-- metadata -->
<g id="node2" class="node">
<title>metadata</title>
<ellipse fill="none" stroke="black" cx="44.7" cy="-195" rx="44.7" ry="18"/>
<text xml:space="preserve" text-anchor="middle" x="44.7" y="-189.95" font-family="Times,serif" font-size="14.00">metadata</text>
</g>
<!-- pdf_input&#45;&gt;metadata -->
<g id="edge1" class="edge">
<title>pdf_input&#45;&gt;metadata</title>
<path fill="none" stroke="black" d="M234.61,-282.39C173.03,-281.13 70.13,-274.86 45.95,-247.5 40.47,-241.31 38.79,-232.87 38.87,-224.62"/>
<polygon fill="black" stroke="black" points="42.34,-225.13 39.81,-214.84 35.37,-224.46 42.34,-225.13"/>
<text xml:space="preserve" text-anchor="middle" x="271.32" y="-234.2" font-family="Times,serif" font-size="14.00">cap:in=media:pdf;op=extract_metadata;out=&quot;media:file&#45;metadata;textable;record&quot;</text>
</g>
<!-- thumbnail -->
<g id="node3" class="node">
<title>thumbnail</title>
<ellipse fill="none" stroke="black" cx="518.7" cy="-195" rx="48.79" ry="18"/>
<text xml:space="preserve" text-anchor="middle" x="518.7" y="-189.95" font-family="Times,serif" font-size="14.00">thumbnail</text>
</g>
<!-- pdf_input&#45;&gt;thumbnail -->
<g id="edge2" class="edge">
<title>pdf_input&#45;&gt;thumbnail</title>
<path fill="none" stroke="black" d="M327.68,-280.14C382.84,-276.46 471.09,-267.55 496.7,-247.5 504.23,-241.6 509.23,-232.62 512.52,-223.81"/>
<polygon fill="black" stroke="black" points="515.81,-225 515.4,-214.42 509.12,-222.95 515.81,-225"/>
<text xml:space="preserve" text-anchor="middle" x="721.76" y="-234.2" font-family="Times,serif" font-size="14.00">cap:in=media:pdf;op=generate_thumbnail;out=&quot;media:image;png;thumbnail&quot;</text>
</g>
<!-- description -->
<g id="node4" class="node">
<title>description</title>
<ellipse fill="none" stroke="black" cx="217.7" cy="-106.5" rx="51.86" ry="18"/>
<text xml:space="preserve" text-anchor="middle" x="217.7" y="-101.45" font-family="Times,serif" font-size="14.00">description</text>
</g>
<!-- thumbnail&#45;&gt;description -->
<g id="edge3" class="edge">
<title>thumbnail&#45;&gt;description</title>
<path fill="none" stroke="black" d="M470.32,-191.77C389.83,-187.57 235.56,-177.22 218.95,-159 213.38,-152.89 211.67,-144.48 211.75,-136.22"/>
<polygon fill="black" stroke="black" points="215.22,-136.71 212.71,-126.42 208.26,-136.03 215.22,-136.71"/>
<text xml:space="preserve" text-anchor="middle" x="508.82" y="-145.7" font-family="Times,serif" font-size="14.00">cap:candle;in=&quot;media:image;png&quot;;ml&#45;model;op=describe_image;out=&quot;media:image&#45;description;textable&quot;</text>
</g>
<!-- img_embedding -->
<g id="node6" class="node">
<title>img_embedding</title>
<ellipse fill="none" stroke="black" cx="820.7" cy="-106.5" rx="71.82" ry="18"/>
<text xml:space="preserve" text-anchor="middle" x="820.7" y="-101.45" font-family="Times,serif" font-size="14.00">img_embedding</text>
</g>
<!-- thumbnail&#45;&gt;img_embedding -->
<g id="edge5" class="edge">
<title>thumbnail&#45;&gt;img_embedding</title>
<path fill="none" stroke="black" d="M567.6,-193.62C637.98,-192.13 763.29,-185.68 798.7,-159 806.34,-153.24 811.36,-144.3 814.64,-135.47"/>
<polygon fill="black" stroke="black" points="817.95,-136.63 817.5,-126.04 811.25,-134.6 817.95,-136.63"/>
<text xml:space="preserve" text-anchor="middle" x="1157.69" y="-145.7" font-family="Times,serif" font-size="14.00">cap:candle;in=&quot;media:image;png&quot;;ml&#45;model;op=generate_image_embeddings;out=&quot;media:embedding&#45;vector;textable;record&quot;</text>
</g>
<!-- desc_embedding -->
<g id="node5" class="node">
<title>desc_embedding</title>
<ellipse fill="none" stroke="black" cx="217.7" cy="-18" rx="73.36" ry="18"/>
<text xml:space="preserve" text-anchor="middle" x="217.7" y="-12.95" font-family="Times,serif" font-size="14.00">desc_embedding</text>
</g>
<!-- description&#45;&gt;desc_embedding -->
<g id="edge4" class="edge">
<title>description&#45;&gt;desc_embedding</title>
<path fill="none" stroke="black" d="M217.7,-88.41C217.7,-76.76 217.7,-61.05 217.7,-47.52"/>
<polygon fill="black" stroke="black" points="221.2,-47.86 217.7,-37.86 214.2,-47.86 221.2,-47.86"/>
<text xml:space="preserve" text-anchor="middle" x="536.07" y="-57.2" font-family="Times,serif" font-size="14.00">cap:candle;in=&quot;media:textable&quot;;ml&#45;model;op=generate_embeddings;out=&quot;media:embedding&#45;vector;textable;record&quot;</text>
</g>
</g>
</svg>
