<?xml version="1.0" encoding="UTF-8" standalone="no"?>
<!DOCTYPE svg PUBLIC "-//W3C//DTD SVG 1.1//EN"
 "http://www.w3.org/Graphics/SVG/1.1/DTD/svg11.dtd">
<!-- Generated by graphviz version 13.1.2 (20250808.2320)
 -->
<!-- Title: multi_format_processing Pages: 1 -->
<svg width="3030pt" height="133pt"
 viewBox="0.00 0.00 3030.00 133.00" xmlns="http://www.w3.org/2000/svg" xmlns:xlink="http://www.w3.org/1999/xlink">
<g id="graph0" class="graph" transform="scale(1 1) rotate(0) translate(4 128.5)">
<title>multi_format_processing</title>
<polygon fill="white" stroke="none" points="-4,4 -4,-128.5 3026.14,-128.5 3026.14,4 -4,4"/>
<!-- pdf_input -->
<g id="node1" class="node">
<title>pdf_input</title>
<ellipse fill="none" stroke="black" cx="535.59" cy="-106.5" rx="46.75" ry="18"/>
<text xml:space="preserve" text-anchor="middle" x="535.59" y="-101.45" font-family="Times,serif" font-size="14.00">pdf_input</text>
</g>
<!-- pdf_metadata -->
<g id="node2" class="node">
<title>pdf_metadata</title>
<ellipse fill="none" stroke="black" cx="61.59" cy="-18" rx="61.59" ry="18"/>
<text xml:space="preserve" text-anchor="middle" x="61.59" y="-12.95" font-family="Times,serif" font-size="14.00">pdf_metadata</text>
</g>
<!-- pdf_input&#45;&gt;pdf_metadata -->
<g id="edge1" class="edge">
<title>pdf_input&#45;&gt;pdf_metadata</title>
<path fill="none" stroke="black" d="M488.91,-104.72C379.42,-102.49 112.91,-94.63 80.84,-70.5 73.47,-64.95 68.92,-56.26 66.11,-47.57"/>
<polygon fill="black" stroke="black" points="69.51,-46.76 63.7,-37.91 62.72,-48.46 69.51,-46.76"/>
<text xml:space="preserve" text-anchor="middle" x="306.21" y="-57.2" font-family="Times,serif" font-size="14.00">cap:in=media:pdf;op=extract_metadata;out=&quot;media:file&#45;metadata;textable;record&quot;</text>
</g>
<!-- pdf_outline -->
<g id="node3" class="node">
<title>pdf_outline</title>
<ellipse fill="none" stroke="black" cx="535.59" cy="-18" rx="53.4" ry="18"/>
<text xml:space="preserve" text-anchor="middle" x="535.59" y="-12.95" font-family="Times,serif" font-size="14.00">pdf_outline</text>
</g>
<!-- pdf_input&#45;&gt;pdf_outline -->
<g id="edge2" class="edge">
<title>pdf_input&#45;&gt;pdf_outline</title>
<path fill="none" stroke="black" d="M535.59,-88.41C535.59,-76.76 535.59,-61.05 535.59,-47.52"/>
<polygon fill="black" stroke="black" points="539.09,-47.86 535.59,-37.86 532.09,-47.86 539.09,-47.86"/>
<text xml:space="preserve" text-anchor="middle" x="766.96" y="-57.2" font-family="Times,serif" font-size="14.00">cap:in=media:pdf;op=extract_outline;out=&quot;media:document&#45;outline;textable;record&quot;</text>
</g>
<!-- pdf_thumbnail -->
<g id="node4" class="node">
<title>pdf_thumbnail</title>
<ellipse fill="none" stroke="black" cx="1021.59" cy="-18" rx="65.68" ry="18"/>
<text xml:space="preserve" text-anchor="middle" x="1021.59" y="-12.95" font-family="Times,serif" font-size="14.00">pdf_thumbnail</text>
</g>
<!-- pdf_input&#45;&gt;pdf_thumbnail -->
<g id="edge3" class="edge">
<title>pdf_input&#45;&gt;pdf_thumbnail</title>
<path fill="none" stroke="black" d="M582.32,-104.7C693.35,-102.41 966.21,-94.39 999.59,-70.5 1007.37,-64.93 1012.42,-56.03 1015.69,-47.18"/>
<polygon fill="black" stroke="black" points="1019.01,-48.29 1018.52,-37.71 1012.3,-46.29 1019.01,-48.29"/>
<text xml:space="preserve" text-anchor="middle" x="1225.61" y="-57.2" font-family="Times,serif" font-size="14.00">cap:in=media:pdf;op=generate_thumbnail;out=&quot;media:image;png;thumbnail&quot;</text>
</g>
<!-- md_input -->
<g id="node5" class="node">
<title>md_input</title>
<ellipse fill="none" stroke="black" cx="2002.59" cy="-106.5" rx="46.75" ry="18"/>
<text xml:space="preserve" text-anchor="middle" x="2002.59" y="-101.45" font-family="Times,serif" font-size="14.00">md_input</text>
</g>
<!-- md_metadata -->
<g id="node6" class="node">
<title>md_metadata</title>
<ellipse fill="none" stroke="black" cx="1470.59" cy="-18" rx="61.59" ry="18"/>
<text xml:space="preserve" text-anchor="middle" x="1470.59" y="-12.95" font-family="Times,serif" font-size="14.00">md_metadata</text>
</g>
<!-- md_input&#45;&gt;md_metadata -->
<g id="edge4" class="edge">
<title>md_input&#45;&gt;md_metadata</title>
<path fill="none" stroke="black" d="M1955.71,-105.18C1836.04,-103.96 1526.1,-98.15 1489.34,-70.5 1481.99,-64.97 1477.52,-56.28 1474.8,-47.6"/>
<polygon fill="black" stroke="black" points="1478.21,-46.84 1472.49,-37.93 1471.41,-48.47 1478.21,-46.84"/>
<text xml:space="preserve" text-anchor="middle" x="1743.96" y="-57.2" font-family="Times,serif" font-size="14.00">cap:in=&quot;media:md;textable&quot;;op=extract_metadata;out=&quot;media:file&#45;metadata;textable;record&quot;</text>
</g>
<!-- md_outline -->
<g id="node7" class="node">
<title>md_outline</title>
<ellipse fill="none" stroke="black" cx="2002.59" cy="-18" rx="53.4" ry="18"/>
<text xml:space="preserve" text-anchor="middle" x="2002.59" y="-12.95" font-family="Times,serif" font-size="14.00">md_outline</text>
</g>
<!-- md_input&#45;&gt;md_outline -->
<g id="edge5" class="edge">
<title>md_input&#45;&gt;md_outline</title>
<path fill="none" stroke="black" d="M2002.59,-88.41C2002.59,-76.76 2002.59,-61.05 2002.59,-47.52"/>
<polygon fill="black" stroke="black" points="2006.09,-47.86 2002.59,-37.86 1999.09,-47.86 2006.09,-47.86"/>
<text xml:space="preserve" text-anchor="middle" x="2263.21" y="-57.2" font-family="Times,serif" font-size="14.00">cap:in=&quot;media:md;textable&quot;;op=extract_outline;out=&quot;media:document&#45;outline;textable;record&quot;</text>
</g>
<!-- md_thumbnail -->
<g id="node8" class="node">
<title>md_thumbnail</title>
<ellipse fill="none" stroke="black" cx="2546.59" cy="-18" rx="65.68" ry="18"/>
<text xml:space="preserve" text-anchor="middle" x="2546.59" y="-12.95" font-family="Times,serif" font-size="14.00">md_thumbnail</text>
</g>
<!-- md_input&#45;&gt;md_thumbnail -->
<g id="edge6" class="edge">
<title>md_input&#45;&gt;md_thumbnail</title>
<path fill="none" stroke="black" d="M2049.3,-105.12C2170.15,-103.77 2486.34,-97.63 2524.59,-70.5 2532.39,-64.96 2537.45,-56.07 2540.72,-47.22"/>
<polygon fill="black" stroke="black" points="2544.04,-48.32 2543.54,-37.74 2537.33,-46.33 2544.04,-48.32"/>
<text xml:space="preserve" text-anchor="middle" x="2779.89" y="-57.2" font-family="Times,serif" font-size="14.00">cap:in=&quot;media:md;textable&quot;;op=generate_thumbnail;out=&quot;media:image;png;thumbnail&quot;</text>
</g>
</g>
</svg>
