<?xml version="1.0" encoding="UTF-8" standalone="no"?>
<!DOCTYPE svg PUBLIC "-//W3C//DTD SVG 1.1//EN"
 "http://www.w3.org/Graphics/SVG/1.1/DTD/svg11.dtd">
<!-- Generated by graphviz version 13.1.2 (20250808.2320)
 -->
<!-- Title: gguf_model_info_plus_vocab Pages: 1 -->
<svg width="1526pt" height="133pt"
 viewBox="0.00 0.00 1526.00 133.00" xmlns="http://www.w3.org/2000/svg" xmlns:xlink="http://www.w3.org/1999/xlink">
<g id="graph0" class="graph" transform="scale(1 1) rotate(0) translate(4 128.5)">
<title>gguf_model_info_plus_vocab</title>
<polygon fill="white" stroke="none" points="-4,4 -4,-128.5 1522.36,-128.5 1522.36,4 -4,4"/>
<!-- request_input -->
<g id="node1" class="node">
<title>request_input</title>
<ellipse fill="none" stroke="black" cx="429.91" cy="-106.5" rx="61.08" ry="18"/>
<text xml:space="preserve" text-anchor="middle" x="429.91" y="-101.45" font-family="Times,serif" font-size="14.00">request_input</text>
</g>
<!-- model_info -->
<g id="node2" class="node">
<title>model_info</title>
<ellipse fill="none" stroke="black" cx="53.91" cy="-18" rx="53.91" ry="18"/>
<text xml:space="preserve" text-anchor="middle" x="53.91" y="-12.95" font-family="Times,serif" font-size="14.00">model_info</text>
</g>
<!-- request_input&#45;&gt;model_info -->
<g id="edge1" class="edge">
<title>request_input&#45;&gt;model_info</title>
<path fill="none" stroke="black" d="M369.02,-104.17C268.26,-101.34 75.83,-93.02 54.91,-70.5 49.14,-64.28 47.5,-55.6 47.74,-47.14"/>
<polygon fill="black" stroke="black" points="51.18,-47.81 48.83,-37.48 44.23,-47.02 51.18,-47.81"/>
<text xml:space="preserve" text-anchor="middle" x="419.41" y="-57.2" font-family="Times,serif" font-size="14.00">cap:gguf;in=&quot;media:llm&#45;generation&#45;request;json;record&quot;;llm;ml&#45;model;op=llm_model_info;out=&quot;media:llm&#45;model&#45;info;json;record&quot;</text>
</g>
<!-- vocab -->
<g id="node3" class="node">
<title>vocab</title>
<ellipse fill="none" stroke="black" cx="805.91" cy="-18" rx="32.93" ry="18"/>
<text xml:space="preserve" text-anchor="middle" x="805.91" y="-12.95" font-family="Times,serif" font-size="14.00">vocab</text>
</g>
<!-- request_input&#45;&gt;vocab -->
<g id="edge2" class="edge">
<title>request_input&#45;&gt;vocab</title>
<path fill="none" stroke="black" d="M490.03,-102.87C584.85,-98.24 760.78,-87.46 783.91,-70.5 791.63,-64.84 796.66,-55.92 799.94,-47.08"/>
<polygon fill="black" stroke="black" points="803.25,-48.21 802.78,-37.63 796.55,-46.2 803.25,-48.21"/>
<text xml:space="preserve" text-anchor="middle" x="1157.61" y="-57.2" font-family="Times,serif" font-size="14.00">cap:gguf;in=&quot;media:llm&#45;generation&#45;request;json;record&quot;;llm;ml&#45;model;op=llm_vocab;out=&quot;media:llm&#45;vocab&#45;response;json;record&quot;</text>
</g>
</g>
</svg>
